<svg xmlns="http://www.w3.org/2000/svg" viewBox="0 0 64 64" role="img" aria-label="marsAI favicon">
  <defs>
    <linearGradient id="marsai-favicon-bg" x1="12" y1="10" x2="52" y2="54" gradientUnits="userSpaceOnUse">
      <stop offset="0" stop-color="#67e8f9" />
      <stop offset="1" stop-color="#0ea5e9" />
    </linearGradient>
  </defs>
  <rect x="6" y="6" width="52" height="52" rx="14" fill="url(#marsai-favicon-bg)" />
  <path
    fill="#0f172a"
    d="M18 23c0-2.761 2.239-5 5-5h15c2.761 0 5 2.239 5 5v18c0 2.761-2.239 5-5 5H23c-2.761 0-5-2.239-5-5V23zm30.382 2.118A2.5 2.5 0 0 0 45 27.354v9.292a2.5 2.5 0 0 0 1.382 2.236l6 3A2.5 2.5 0 0 0 56 39.646V24.354a2.5 2.5 0 0 0-3.618-2.236l-6 3z"
  />
</svg>
